<?xml version="1.0" encoding="UTF-8"?>
<svg id="Layer_2" data-name="Layer 2" xmlns="http://www.w3.org/2000/svg" viewBox="0 0 102.19 117.2">
  <g id="Layer_1-2" data-name="Layer 1">
    <path d="M86.29,117.2H15.9c-8.77,0-15.9-7.13-15.9-15.9v-50.21c0-4.25,1.65-8.24,4.66-11.24L39.85,4.65c6.2-6.2,16.29-6.2,22.49,0l35.19,35.19c3,3,4.66,7,4.66,11.24v50.21c0,8.77-7.13,15.9-15.9,15.9ZM51.09,10c-1.51,0-3.02.58-4.17,1.73L11.73,46.91c-1.12,1.11-1.73,2.6-1.73,4.17v50.21c0,3.25,2.65,5.9,5.9,5.9h70.38c3.25,0,5.9-2.65,5.9-5.9v-50.21c0-1.58-.61-3.06-1.73-4.17L55.27,11.72c-1.15-1.15-2.66-1.73-4.17-1.73Z"/>
    <path d="M75.78,96.46H26.4c-2.76,0-5-2.24-5-5s2.24-5,5-5h49.38c2.76,0,5,2.24,5,5s-2.24,5-5,5Z"/>
  </g>
</svg>